<?xml version="1.0" encoding="utf-8"?>
<!-- Generator: Adobe Illustrator 19.0.0, SVG Export Plug-In . SVG Version: 6.00 Build 0)  -->
<svg version="1.1" id="Layer_4" xmlns="http://www.w3.org/2000/svg" xmlns:xlink="http://www.w3.org/1999/xlink" x="0px" y="0px"
	 viewBox="0 0 396 340" style="enable-background:new 0 0 396 340;" xml:space="preserve">
<style type="text/css">
	.st0{fill:url(#SVGID_1_);}
	.st1{fill:#666666;}
</style>
<g>
	<linearGradient id="SVGID_1_" gradientUnits="userSpaceOnUse" x1="84.5936" y1="288.3829" x2="317.8914" y2="55.0852">
		<stop  offset="0" style="stop-color:#A996FF"/>
		<stop  offset="1" style="stop-color:#25C3FF"/>
	</linearGradient>
	<path class="st0" d="M288.5,48.2H151.6c7.3,4.7,14.8,9.9,22.2,15.8c4.7,3.7,9.3,7.6,13.8,11.4h100.9c15,0,27.2,12.2,27.2,27.2v83.8
		c-9.1,0.6-18.7-0.3-28.3-3c-27.1-7.4-50.9-26.5-66.4-40.2c-8.1-7.2-16.2-14.8-24.1-22.3c-12.7-12-25.8-24.5-39.9-35.6
		c-4.6-3.6-9.1-6.9-13.5-9.9c-10.5-7.2-20.9-13-31.2-17.4c-13.7-5.8-29.8-2.2-39.5,9c-0.1,0.1-0.1,0.1-0.2,0.2
		c-2.5,2.9-4.7,6.1-6.5,9.5c9.9-0.5,19.7,0.8,28.7,3.7c0.8,0.3,1.6,0.5,2.3,0.8c3.1,1.2,6.2,2.5,9.3,4c10.9,5.2,22.1,12.3,33.7,21.5
		c13.1,10.3,25.2,21.8,38,34h0c8.8,8.3,12,21,8.3,32.5L159.3,257c-2.1,6.5-8.2,10.9-15,10.9H114c-15,0-27.2-12.2-27.2-27.2V106.5
		c-6.4-2.1-13.5-3-20.6-2.4c-2.2,0.1-4.4,0.4-6.6,0.8v135.8c0,30.1,24.4,54.4,54.4,54.4h174.5c30,0,54.4-24.4,54.4-54.4v-32.2V179
		v-76.3C342.9,72.6,318.5,48.2,288.5,48.2z M315.7,240.8c0,0.1,0,0.1,0,0.2c-0.1,14.9-12.3,27-27.2,27h-90.7
		c-6.6,0-11.3-6.5-9.3-12.8l20.4-63c2.9-8.8,13.4-12.4,21-7.1c14.4,10,31.5,19.5,50.3,24.7c10.1,2.8,20.2,4.1,30.1,4.1
		c1.8,0,3.6,0,5.4-0.1V240.8z"/>
</g>
<g>
	<polygon class="st1" points="450,123.4 501.1,123.4 501.1,256 532,256 532,123.4 583.1,123.4 583.1,96.1 450,96.1 	"/>
	<polygon class="st1" points="679,187.1 746.3,187.1 746.3,161.9 679,161.9 679,123.4 756.9,123.4 756.9,96.1 647.9,96.1 
		647.9,101.1 647.9,123.4 647.9,161.9 647.9,189.1 647.9,256 758.9,256 758.9,228.8 679,228.8 	"/>
	<polygon class="st1" points="859.3,96.1 828.2,96.1 828.2,256 940.8,256 940.8,228.8 859.3,228.8 	"/>
	<rect x="1004.7" y="96.1" class="st1" width="31.1" height="159.9"/>
	<path class="st1" d="M1239.1,120.7c-6.8-7.7-14.9-13.8-24.4-18.6c-9.5-4.7-20.1-7.1-31.6-7.1c-11.3,0-21.7,2.2-31.3,6.6
		c-9.6,4.4-17.9,10.4-24.9,17.9c-7,7.5-12.5,16.1-16.4,25.9c-4,9.8-6,20-6,30.6c0,10.2,1.9,20.2,5.6,29.9c3.7,9.8,9,18.4,15.9,26
		c6.8,7.6,15,13.7,24.5,18.3c9.5,4.6,20.1,6.9,31.8,6.9c11.3,0,21.7-2.2,31.3-6.6c9.6-4.4,17.9-10.4,24.8-17.8
		c6.9-7.4,12.3-16,16.2-25.7c3.9-9.7,5.9-19.8,5.9-30.5c0-10.1-1.9-20-5.6-29.7C1251.1,137.1,1245.9,128.3,1239.1,120.7z
		 M1226.2,195.5c-2,6.4-5,12.1-9,17.2c-4,5.1-8.9,9.2-14.6,12.3c-5.8,3.1-12.4,4.6-19.9,4.6c-7.4,0-13.9-1.5-19.7-4.5
		c-5.8-3-10.7-7-14.6-11.9c-4-5-7-10.7-9.1-17.1c-2.1-6.5-3.1-13.1-3.1-20c0-6.6,1-13.1,3-19.5c2-6.4,5-12.1,8.9-17.1
		c3.9-5,8.8-9.1,14.6-12.2c5.9-3.1,12.5-4.6,20-4.6c7.2,0,13.7,1.5,19.5,4.4c5.8,2.9,10.6,6.9,14.6,11.8c4,5,7.1,10.7,9.2,17.1
		c2.2,6.5,3.3,13.1,3.3,20.1C1229.2,182.7,1228.2,189.2,1226.2,195.5z"/>
	<path class="st1" d="M1440.4,191.7c-2.4-5-5.8-9.4-10.2-12.9c-4.4-3.6-9.8-6.6-16.2-9c-6.4-2.4-13.5-4.7-21.3-6.7
		c-6-1.5-11.3-2.9-15.9-4.3c-4.6-1.3-8.4-2.9-11.4-4.5c-3-1.7-5.3-3.6-6.9-5.7c-1.6-2.2-2.4-4.9-2.4-8.2c0-5.7,2.1-10.1,6.3-13.3
		c4.2-3.2,10.6-4.7,19.1-4.7c4.8,0,9.5,0.6,14.2,1.8c4.7,1.2,9,2.7,12.9,4.4c4,1.7,7.4,3.5,10.1,5.3c2.8,1.8,4.7,3.2,5.7,4.3
		l13.7-25.2c-7.1-4.8-15.3-9-24.8-12.5c-9.4-3.5-19.8-5.3-31.1-5.3c-8.1,0-15.7,1.1-22.7,3.3c-7.1,2.2-13.3,5.4-18.6,9.6
		c-5.3,4.2-9.5,9.4-12.5,15.8c-3,6.3-4.5,13.5-4.5,21.6c0,6.2,1,11.4,2.8,15.9c1.9,4.4,4.7,8.3,8.5,11.7c3.7,3.4,8.4,6.3,14.1,8.8
		c5.6,2.5,12.3,4.8,19.9,6.9c6.3,1.8,12,3.5,17.1,4.9c5.1,1.5,9.4,3.2,13.1,5c3.6,1.8,6.4,3.9,8.3,6.3c2,2.4,2.9,5.3,2.9,8.8
		c0,11-8.6,16.4-25.7,16.4c-6.2,0-12.2-0.7-18-2.2c-5.8-1.5-11.2-3.3-16-5.5c-4.8-2.2-9-4.4-12.5-6.5c-3.5-2.2-6-3.9-7.3-5.3
		l-13.7,26.8c9.3,6.6,19.8,11.7,31.5,15.3c11.7,3.6,23.6,5.4,35.6,5.4c7.8,0,15.3-0.9,22.4-2.6c7.1-1.7,13.4-4.5,18.9-8.2
		c5.5-3.7,9.8-8.7,13.1-14.8c3.2-6.1,4.8-13.4,4.8-21.9C1444,202.9,1442.8,196.7,1440.4,191.7z"/>
</g>
</svg>
